<?xml version="1.0" encoding="utf-8"?><svg viewBox="0 0 24 24" xmlns="http://www.w3.org/2000/svg" xmlns:xlink="http://www.w3.org/1999/xlink"><style>:root>svg{display:none}:root>svg:target{display:block}</style><svg fill="none" viewBox="0 0 24 24" id="test" xmlns="http://www.w3.org/2000/svg"><path d="M19 21H5a2 2 0 01-2-2V5a2 2 0 012-2h14a2 2 0 012 2v14a2 2 0 01-2 2zM6 5a1 1 0 00-1 1v12a1 1 0 001 1h12a1 1 0 001-1V6a1 1 0 00-1-1H6zm11 11a1 1 0 11-2 0v-5a1 1 0 112 0v5zm-4 0a1 1 0 11-2 0V8a1 1 0 112 0v8zm-4 0a1 1 0 11-2 0v-3a1 1 0 112 0v3z" fill="#3361FF"/></svg></svg>